# xmcd CD database file
#
# Track frame offsets:
#	150
#	13003
#	25833
#	38818
#	49925
#	66335
#	80353
#	95915
#	109093
#	123738
#	135308
#	151028
#	162483
#	178155
#	188765
#	203233
#
# Disc length: 2908 seconds
#
# Revision: 0
# Processed by: cddbd v1.4PL0 Copyright (c) Steve Scherf et al.
# Submitted via: CDex 1.50beta8
#
DISCID=da0b5a10
DTITLE=Glenn Miller - Chattanooga Choo Choo
DYEAR=1992
DGENRE=Jazz
TTITLE0=Wishing (Will Make It So)
TTITLE1=Stairway To The Stars
TTITLE2=Moon Love
TTITLE3=Over The Rainbow
TTITLE4=In The Mood
TTITLE5=Careless
TTITLE6=Tuxedo Junction
TTITLE7=When You Wish Upon A sTar
TTITLE8=Imagination
TTITLE9=Fools Rush In (Where Angels Fear To Tread)
TTITLE10=Song Of The Volga Boatman
TTITLE11=You And I
TTITLE12=Chattanooga Choo Choo
TTITLE13=Elmer's Tune
TTITLE14=A String Of Pearls
TTITLE15=Moonlight Cocktail
EXTD=YEAR: 1992
EXTT0=
EXTT1=
EXTT2=
EXTT3=
EXTT4=
EXTT5=
EXTT6=
EXTT7=
EXTT8=
EXTT9=
EXTT10=
EXTT11=
EXTT12=
EXTT13=
EXTT14=
EXTT15=
PLAYORDER=
